<svg xmlns="http://www.w3.org/2000/svg" viewBox="141.63 192.24 927.95 384.81">
<desc>Manuvo logo orizzontale</desc>
<defs>
</defs>

<g transform="matrix(1.9211538461538462 0 0 1.9211538461538462 321.8172968086971 384.6469914901541)" id="logo-logo">
<g style="" paint-order="stroke">
		<g transform="matrix(1.2038907869185405 0 0 -1.2038907869185405 0 0)">
<path style="stroke: none; stroke-width: 1; stroke-dasharray: none; stroke-linecap: butt; stroke-dashoffset: 0; stroke-linejoin: miter; stroke-miterlimit: 4; fill: rgb(255,87,88); fill-rule: nonzero; opacity: 1;" paint-order="stroke" transform=" translate(-162.5, -129.99992039497795)" d="M 161.239 210.258 L 124.845 189.244 L 88.45 168.236 C 87.669 167.785 87.18900000000001 166.953 87.18900000000001 166.051 L 87.18900000000001 166.051 L 87.18900000000001 124.02399999999999 L 87.18900000000001 81.999 C 87.18900000000001 81.098 87.66900000000001 80.26599999999999 88.44900000000001 79.815 L 88.44900000000001 79.815 L 124.84500000000001 58.801 L 140.52700000000002 49.745000000000005 C 142.20800000000003 48.775000000000006 144.311 49.989000000000004 144.311 51.93000000000001 L 144.311 51.93000000000001 L 144.311 87.95600000000002 C 144.311 88.85700000000001 143.83 89.68900000000002 143.05 90.14000000000001 L 143.05 90.14000000000001 L 124.69000000000001 100.73800000000001 C 123.909 101.18900000000001 123.42800000000001 102.02100000000002 123.42800000000001 102.92300000000002 L 123.42800000000001 102.92300000000002 L 123.42800000000001 124.02400000000002 L 123.42800000000001 145.12400000000002 C 123.42800000000001 146.02500000000003 123.909 146.85800000000003 124.69000000000001 147.30800000000002 L 124.69000000000001 147.30800000000002 L 140.52700000000002 156.45100000000002 C 142.20800000000003 157.42300000000003 144.311 156.20900000000003 144.311 154.26700000000002 L 144.311 154.26700000000002 L 144.311 122.98000000000002 C 144.311 122.09700000000002 144.77200000000002 121.27900000000002 145.52700000000002 120.82100000000001 L 145.52700000000002 120.82100000000001 L 161.187 111.34900000000002 C 161.989 110.86500000000002 162.994 110.86300000000001 163.79700000000003 111.34900000000002 L 163.79700000000003 111.34900000000002 L 179.47100000000003 120.82100000000001 C 180.22700000000003 121.27900000000001 180.68800000000005 122.09700000000001 180.68800000000005 122.98000000000002 L 180.68800000000005 122.98000000000002 L 180.68800000000005 154.26500000000001 C 180.68800000000005 156.20700000000002 182.79000000000005 157.42000000000002 184.47200000000004 156.449 L 184.47200000000004 156.449 L 200.30700000000004 147.30800000000002 C 201.08700000000005 146.85800000000003 201.56800000000004 146.02500000000003 201.56800000000004 145.12400000000002 L 201.56800000000004 145.12400000000002 L 201.56800000000004 124.02400000000003 L 201.56800000000004 102.92300000000003 C 201.56800000000004 102.02100000000003 201.08700000000005 101.18900000000004 200.30700000000004 100.73800000000003 L 200.30700000000004 100.73800000000003 L 181.95 90.142 C 181.17 89.692 180.688 88.86 180.688 87.959 L 180.688 87.959 L 180.688 51.932 C 180.688 49.99 182.79 48.777 184.47199999999998 49.748000000000005 L 184.47199999999998 49.748000000000005 L 200.15399999999997 58.801 L 236.54999999999995 79.813 C 237.32999999999996 80.263 237.81099999999995 81.095 237.81099999999995 81.99600000000001 L 237.81099999999995 81.99600000000001 L 237.81099999999995 124.024 L 237.81099999999995 166.049 C 237.81099999999995 166.95000000000002 237.32999999999996 167.78300000000002 236.54999999999995 168.232 L 236.54999999999995 168.232 L 200.15399999999994 189.244 L 163.75999999999993 210.258 C 163.37099999999992 210.483 162.93499999999995 210.596 162.49999999999994 210.596 L 162.49999999999994 210.596 C 162.06399999999994 210.596 161.62899999999993 210.483 161.23899999999995 210.258" stroke-linecap="round"></path>
</g>
</g>
</g>
<g transform="matrix(1.9211538461538462 0 0 1.9211538461538462 802.5010931418174 400.3934162013646)" id="text-logo">
<g style="" paint-order="stroke">
		<g transform="matrix(1 0 0 1 0 0)" id="text-logo-path-0">
<path style="stroke: none; stroke-width: 0; stroke-dasharray: none; stroke-linecap: butt; stroke-dashoffset: 0; stroke-linejoin: miter; stroke-miterlimit: 4; fill: rgb(255,87,88); fill-rule: nonzero; opacity: 1;" paint-order="stroke" transform=" translate(-138.28, 41.65)" d="M 26.18 0 L 40.46 0 L 40.46 -71.16 C 40.46 -78.18 35.34 -83.3 28.32 -83.3 L 26.18 -83.3 L 14.52 -83.3 C 7.5 -83.3 2.38 -78.18 2.38 -71.16 L 2.38 0 L 16.66 0 L 16.66 -30.94 L 26.18 -30.94 Z M 16.66 -45.22 L 16.66 -69.02 L 26.18 -69.02 L 26.18 -45.22 Z M 84.61 0 L 98.89 0 L 98.89 -71.16 C 98.89 -78.18 93.77 -83.3 86.75 -83.3 L 84.61 -83.3 L 60.81 -83.3 L 60.81 0 L 75.09 0 L 75.09 -69.02 L 84.61 -69.02 Z M 131.38 0 L 145.18 0 C 152.2 0 157.32 -5.12 157.32 -12.14 L 157.32 -83.3 L 143.04 -83.3 L 143.04 -14.28 L 133.52 -14.28 L 133.52 -83.3 L 119.24 -83.3 L 119.24 -12.14 C 119.24 -5.12 124.36 0 131.38 0 Z M 201.47 -24.99 L 196.59 -14.99 L 191.95 -24.99 L 191.83 -24.99 L 191.95 -83.3 L 177.79 -83.3 L 177.67 -24.99 L 177.79 -24.99 L 189.45 0 L 203.61 0 L 215.63 -24.99 L 215.75 -83.3 L 201.47 -83.3 Z M 248.23 0 L 262.04 0 C 269.06 0 274.18 -5.12 274.18 -12.14 L 274.18 -71.16 C 274.18 -78.18 269.06 -83.3 262.04 -83.3 L 250.38 -83.3 L 248.23 -83.3 C 241.21 -83.3 236.1 -78.18 236.1 -71.16 L 236.1 -12.14 C 236.1 -5.12 241.21 0 248.23 0 Z M 250.38 -14.28 L 250.38 -69.02 L 259.9 -69.02 L 259.9 -14.28 Z" stroke-linecap="round"></path>
</g>
</g>
</g>
</svg>
