<svg xmlns="http://www.w3.org/2000/svg" width="1000" height="700" viewBox="0 0 1000 700" preserveAspectRatio="xMidYMid slice">
  <defs>
    <radialGradient id="bg" cx="30%" cy="26%" r="95%">
      <stop offset="0%" stop-color="#dfe2d5"/>
      <stop offset="52%" stop-color="#c1c7b3"/>
      <stop offset="100%" stop-color="#98a184"/>
    </radialGradient>
    <radialGradient id="glow" cx="30%" cy="26%" r="45%">
      <stop offset="0%" stop-color="#8a9a72" stop-opacity="0.5"/>
      <stop offset="100%" stop-color="#8a9a72" stop-opacity="0"/>
    </radialGradient>
    <radialGradient id="vig" cx="50%" cy="46%" r="75%">
      <stop offset="55%" stop-color="#000000" stop-opacity="0"/>
      <stop offset="100%" stop-color="#000000" stop-opacity="0.55"/>
    </radialGradient>
    <filter id="grain"><feTurbulence type="fractalNoise" baseFrequency="0.9" numOctaves="2" stitchTiles="stitch"/>
      <feColorMatrix type="saturate" values="0"/>
      <feComponentTransfer><feFuncA type="linear" slope="0.06"/></feComponentTransfer>
      <feComposite operator="over" in2="SourceGraphic"/></filter>
    <filter id="soft"><feGaussianBlur stdDeviation="2.2"/></filter>
  </defs>

  <rect width="1000" height="700" fill="url(#bg)"/>
  <rect width="1000" height="700" fill="url(#glow)"/>
  <text x="500" y="441" font-family="Shippori Mincho, serif" font-size="630" fill="#1B1915" fill-opacity="0.08" text-anchor="middle" font-weight="600">清</text>
  <g filter="url(#soft)" opacity="0.1">
    <path d="M 150.1 345.9 L 141.5 329.0 L 128.8 315.9 L 114.0 303.4 L 110.0 284.6 L 99.4 269.0 L 102.2 249.0 L 94.2 232.3 L 90.4 214.3 L 91.7 196.0 L 91.9 177.8 L 88.5 158.7 L 98.3 141.9 L 102.3 124.0 L 110.5 107.7 L 113.7 88.4 L 123.4 72.3 L 142.1 63.5 L 151.9 47.9 L 168.6 39.4 L 178.7 22.8 L 197.2 17.9 L 209.3 1.4 L 226.8 -5.1 L 245.8 -6.3 L 264.4 -6.0 L 282.1 -8.7 L 300.0 -13.6 L 317.8 -7.0 L 335.8 -6.8 L 353.2 -2.7 L 370.6 2.1 L 388.1 7.0 L 402.9 17.8 L 422.9 20.4 L 431.7 39.1 L 447.9 48.1 L 457.6 63.8 L 476.2 72.6 L 483.1 90.3 L 487.3 108.7 L 501.2 122.8 L 508.6 140.1 L 504.5 159.9 L 506.0 178.0 L 515.7 196.0 L 510.1 214.4 L 500.7 231.4 L 497.5 248.9 L 500.6 269.0 L 486.2 282.8 L 484.8 302.7 L 467.3 313.1 L 462.5 332.4 L 449.8 345.8 L 436.5 358.7 L 423.3 372.1 L 407.6 382.3 L 391.1 391.4 L 372.2 394.5 L 354.3 398.6" fill="none" stroke="#6f7d55" stroke-width="18.9" stroke-linecap="round"/>
    <path d="M 152.8 343.2 L 141.8 328.8 L 128.5 316.1 L 117.0 301.6 L 114.4 282.6 L 98.5 269.3 L 99.8 249.6 L 95.2 232.1 L 93.4 214.1 L 91.1 196.0 L 94.1 178.0 L 95.7 160.0 L 92.8 140.5 L 97.6 122.3 L 108.6 106.7 L 114.6 88.9 L 129.4 76.5 L 141.0 62.6 L 150.9 46.9 L 163.2 33.0 L 180.9 25.9 L 194.5 13.3 L 213.2 9.8 L 227.0 -4.6 L 246.7 -3.1 L 262.9 -14.4 L 281.1 -19.5 L 300.0 -11.6 L 318.7 -18.3 L 336.7 -12.2 L 355.9 -12.5 L 372.5 -3.2 L 386.6 10.3 L 405.9 12.6 L 417.9 27.6 L 433.4 37.0 L 444.3 51.7 L 456.1 65.0 L 472.4 75.3 L 482.7 90.5 L 488.5 108.1 L 501.7 122.6 L 504.6 141.2 L 507.8 159.4 L 509.7 177.7 L 511.7 196.0 L 514.2 214.7 L 504.6 232.1 L 501.1 249.9 L 492.0 265.9 L 489.1 284.2 L 485.6 303.1 L 468.6 314.0 L 463.9 333.5 L 451.2 347.2 L 437.9 360.3 L 420.3 367.7 L 405.8 379.2 L 386.2 380.8 L 371.1 391.4 L 355.8 404.2" fill="none" stroke="#6f7d55" stroke-width="8.4" stroke-linecap="round"/>
  </g>
  <line x1="80" y1="602" x2="340" y2="602" stroke="#8a9a72" stroke-opacity="0.35" stroke-width="1"/>
  <rect width="1000" height="700" fill="url(#vig)"/>
  <rect width="1000" height="700" filter="url(#grain)" opacity="0.5"/>
</svg>
